<svg xmlns="http://www.w3.org/2000/svg" width="1000" height="145" viewBox="0 0 1000 145" role="img"><rect width="1000" height="145" fill="#0d1117"/><svg x="18" y="14" width="43" height="43" viewBox="0 0 24 24" fill="none" stroke="#d58aff" stroke-width="2" stroke-linecap="round" stroke-linejoin="round">
  <rect width="20" height="14" x="2" y="3" rx="2" />
  <line x1="8" x2="16" y1="21" y2="21" />
  <line x1="12" x2="12" y1="17" y2="21" />
</svg><text x="76" y="29" fill="#e6eaf2" font-family="Segoe UI, Arial, sans-serif" font-size="17" font-weight="700">Front-End</text><text x="76" y="56" fill="#e6eaf2" font-family="Segoe UI, Arial, sans-serif" font-size="17" font-weight="700">Development</text><text x="76" y="96" fill="#69bbf1" font-family="Segoe UI, Arial, sans-serif" font-size="16">Vue · JavaScript</text><text x="76" y="123" fill="#69bbf1" font-family="Segoe UI, Arial, sans-serif" font-size="16">Modern CSS</text><svg x="268" y="14" width="43" height="43" viewBox="0 0 24 24" fill="none" stroke="#f2bd65" stroke-width="2" stroke-linecap="round" stroke-linejoin="round">
  <path d="M21 8a2 2 0 0 0-1-1.73l-7-4a2 2 0 0 0-2 0l-7 4A2 2 0 0 0 3 8v8a2 2 0 0 0 1 1.73l7 4a2 2 0 0 0 2 0l7-4A2 2 0 0 0 21 16Z" />
  <path d="m3.3 7 8.7 5 8.7-5" />
  <path d="M12 22V12" />
</svg><text x="326" y="29" fill="#e6eaf2" font-family="Segoe UI, Arial, sans-serif" font-size="17" font-weight="700">Design Systems</text><text x="326" y="56" fill="#e6eaf2" font-family="Segoe UI, Arial, sans-serif" font-size="17" font-weight="700">&amp; UI/UX</text><text x="326" y="96" fill="#9aa7bd" font-family="Segoe UI, Arial, sans-serif" font-size="16">Interfaces</text><text x="326" y="123" fill="#9aa7bd" font-family="Segoe UI, Arial, sans-serif" font-size="16">that scale</text><svg x="518" y="14" width="43" height="43" viewBox="0 0 24 24" fill="none" stroke="#8388ff" stroke-width="2" stroke-linecap="round" stroke-linejoin="round">
  <path d="M21.174 6.812a1 1 0 0 0-3.986-3.987L3.842 16.174a2 2 0 0 0-.5.83l-1.321 4.352a.5.5 0 0 0 .623.622l4.353-1.32a2 2 0 0 0 .83-.497z" />
  <path d="m15 5 4 4" />
</svg><text x="576" y="29" fill="#e6eaf2" font-family="Segoe UI, Arial, sans-serif" font-size="17" font-weight="700">From Figma</text><text x="576" y="56" fill="#e6eaf2" font-family="Segoe UI, Arial, sans-serif" font-size="17" font-weight="700">to Production</text><text x="576" y="96" fill="#9aa7bd" font-family="Segoe UI, Arial, sans-serif" font-size="16">Design to code</text><text x="576" y="123" fill="#9aa7bd" font-family="Segoe UI, Arial, sans-serif" font-size="16">with attention to detail</text><svg x="768" y="14" width="43" height="43" viewBox="0 0 24 24" fill="none" stroke="#e297f4" stroke-width="2" stroke-linecap="round" stroke-linejoin="round">
  <line x1="6" x2="10" y1="11" y2="11" />
  <line x1="8" x2="8" y1="9" y2="13" />
  <line x1="15" x2="15.01" y1="12" y2="12" />
  <line x1="18" x2="18.01" y1="10" y2="10" />
  <path d="M17.32 5H6.68a4 4 0 0 0-3.978 3.59c-.006.052-.01.101-.017.152C2.604 9.416 2 14.456 2 16a3 3 0 0 0 3 3c1 0 1.5-.5 2-1l1.414-1.414A2 2 0 0 1 9.828 16h4.344a2 2 0 0 1 1.414.586L17 18c.5.5 1 1 2 1a3 3 0 0 0 3-3c0-1.545-.604-6.584-.685-7.258-.007-.05-.011-.1-.017-.151A4 4 0 0 0 17.32 5z" />
</svg><text x="826" y="29" fill="#e6eaf2" font-family="Segoe UI, Arial, sans-serif" font-size="17" font-weight="700">Open to</text><text x="826" y="56" fill="#e6eaf2" font-family="Segoe UI, Arial, sans-serif" font-size="17" font-weight="700">new challenges</text><text x="826" y="96" fill="#9aa7bd" font-family="Segoe UI, Arial, sans-serif" font-size="16">Always learning</text><text x="826" y="123" fill="#9aa7bd" font-family="Segoe UI, Arial, sans-serif" font-size="16">and building</text></svg>
